REM GENRE "NS Black Metal"
REM DATE 2009
REM DISCID 1F0D6E03
REM COMMENT "ExactAudioCopy v1.0b3"
PERFORMER "Flame of War"
TITLE "Transcendence"
FILE "Flame of War - Transcendence.flac" WAVE
  TRACK 01 AUDIO
    TITLE "Transcendence"
    PERFORMER "Flame of War"
    FLAGS DCP
    INDEX 01 00:00:00
  TRACK 02 AUDIO
    TITLE "Unity"
    PERFORMER "Flame of War"
    FLAGS DCP
    INDEX 00 14:46:13
    INDEX 01 14:48:13
  TRACK 03 AUDIO
    TITLE "Fate"
    PERFORMER "Flame of War"
    FLAGS DCP
    INDEX 00 30:26:54
    INDEX 01 30:28:54
